<?xml version="1.0" encoding="UTF-8" standalone="no"?>
<!DOCTYPE svg PUBLIC "-//W3C//DTD SVG 1.1//EN" "http://www.w3.org/Graphics/SVG/1.1/DTD/svg11.dtd">
<svg width="100%" height="100%" viewBox="0 0 1920 1080" version="1.1" xmlns="http://www.w3.org/2000/svg" xmlns:xlink="http://www.w3.org/1999/xlink" xml:space="preserve" xmlns:serif="http://www.serif.com/" style="fill-rule:evenodd;clip-rule:evenodd;stroke-linecap:round;stroke-linejoin:round;stroke-miterlimit:1.5;">
    <g transform="matrix(1,0,0,1,0.5,0.955382)">
        <g transform="matrix(1,0,0,1,0,-0.455382)">
            <path d="M1920,1080L1920,0L0,0L0,161.146C0,161.146 11.768,165.944 30.246,172.869C78.776,191.056 222.213,201.083 271.706,202.051C407.143,204.7 527.239,144.779 772.521,171.72C844.009,179.573 914.888,189.896 960,247.406C1071.08,389.017 983.169,371.739 984.312,513.683C985.303,636.617 1091.45,740.947 1063.87,812.743C1011.58,948.853 1127.89,1013.89 1190.66,1046.93C1283.23,1095.64 1570.16,1080 1570.16,1080L1920,1080Z" style="fill:rgb(223,109,20);stroke:rgb(223,109,20);stroke-width:1px;"/>
        </g>
    </g>
</svg>
