<?xml version="1.0" encoding="UTF-8" standalone="no"?>
<!DOCTYPE svg PUBLIC "-//W3C//DTD SVG 1.1//EN" "http://www.w3.org/Graphics/SVG/1.1/DTD/svg11.dtd">
<svg width="100%" height="100%" viewBox="0 0 798 439" version="1.1" xmlns="http://www.w3.org/2000/svg" xmlns:xlink="http://www.w3.org/1999/xlink" xml:space="preserve" xmlns:serif="http://www.serif.com/" style="fill-rule:evenodd;clip-rule:evenodd;stroke-linecap:round;stroke-linejoin:round;">
    <g transform="matrix(1,0,0,1,-1062.05,-373.333)">
        <g>
            <g id="tree-04-stroke-rounded.svg" transform="matrix(-9.14489,0,0,9.14489,1346.4,483.072)">
                <g transform="matrix(1,0,0,1,-12,-12)">
                    <path d="M12,17.355C14.87,18.143 18,14.221 18,12C18,10.374 17.354,8.9 16.304,7.819C16.431,7.402 16.5,6.959 16.5,6.5C16.5,4.015 14.485,2 12,2C9.515,2 7.5,4.015 7.5,6.5C7.5,6.959 7.569,7.402 7.696,7.819C6.647,8.9 6,10.374 6,12C6,14.221 8.972,18.127 12,17.355Z" style="fill:rgb(58,125,68);fill-rule:nonzero;"/>
                    <path d="M12,22L12,9" style="fill:none;fill-rule:nonzero;stroke:rgb(105,59,31);stroke-width:1.5px;"/>
                    <path d="M12,15L14.5,12.5" style="fill:none;fill-rule:nonzero;stroke:rgb(105,59,31);stroke-width:1.5px;"/>
                    <path d="M12,13L9.5,10.5" style="fill:none;fill-rule:nonzero;stroke:rgb(105,59,31);stroke-width:1.5px;"/>
                </g>
            </g>
            <g id="tree-02-stroke-rounded.svg" transform="matrix(-9.14489,0,0,9.14489,1481.21,504.537)">
                <g transform="matrix(1,0,0,1,-12,-12)">
                    <path d="M15,17L16,17C18.761,17 21,14.761 21,12C21,9.581 19.282,7.563 16.999,7.1C16.999,4.338 15,2 12,2C9,2 7.001,4.338 7.001,7.1C4.718,7.563 3,9.581 3,12C3,14.761 5.239,17 8,17L9,17" style="fill:rgb(58,125,68);fill-rule:nonzero;"/>
                    <path d="M12,22L12,9" style="fill:none;fill-rule:nonzero;stroke:rgb(105,59,31);stroke-width:1.5px;"/>
                    <path d="M12,15L14.5,12.5" style="fill:none;fill-rule:nonzero;stroke:rgb(105,59,31);stroke-width:1.5px;"/>
                    <path d="M12,13L9.5,10.5" style="fill:none;fill-rule:nonzero;stroke:rgb(105,59,31);stroke-width:1.5px;"/>
                </g>
            </g>
            <g id="tree-03-stroke-rounded.svg" transform="matrix(9.14489,0,0,9.14489,1311.23,614.276)">
                <g transform="matrix(1,0,0,1,-12,-12)">
                    <path d="M12,17.533C16.023,17.635 18,14.221 18,12L18,8C18,4.686 15.314,2 12,2C8.686,2 6,4.686 6,8L6,12C6,14.221 8.094,17.435 12,17.533Z" style="fill:rgb(58,125,68);fill-rule:nonzero;"/>
                    <path d="M12,22L12,9" style="fill:none;fill-rule:nonzero;stroke:rgb(105,59,31);stroke-width:1.5px;"/>
                    <g transform="matrix(1,0,0,1,0,-0.100083)">
                        <path d="M12,15L14.5,12.5" style="fill:none;fill-rule:nonzero;stroke:rgb(105,59,31);stroke-width:1.5px;"/>
                    </g>
                    <path d="M12,13L9.5,10.5" style="fill:none;fill-rule:nonzero;stroke:rgb(105,59,31);stroke-width:1.5px;"/>
                </g>
            </g>
            <g id="tree-05-stroke-rounded.svg" transform="matrix(9.14489,0,0,9.14489,1391.27,670.202)">
                <g transform="matrix(1,0,0,1,-12,-12)">
                    <path d="M12,18.144C16.11,17.78 18,15.204 18,12.02C18,7.601 15,2.02 12,2.02C9,2.02 6,7.601 6,12.02C6,15.204 9.093,17.977 12,18.144Z" style="fill:rgb(58,125,68);fill-rule:nonzero;"/>
                    <g transform="matrix(1,0,0,1,0,-0.218567)">
                        <path d="M12,22L12,9" style="fill:none;fill-rule:nonzero;stroke:rgb(105,59,31);stroke-width:1.5px;"/>
                    </g>
                    <path d="M12,15L14.5,12.5" style="fill:none;fill-rule:nonzero;stroke:rgb(105,59,31);stroke-width:1.5px;"/>
                    <path d="M12,13L9.5,10.5" style="fill:none;fill-rule:nonzero;stroke:rgb(105,59,31);stroke-width:1.5px;"/>
                </g>
            </g>
            <g id="tree-04-stroke-rounded.svg1" serif:id="tree-04-stroke-rounded.svg" transform="matrix(-9.14489,0,0,9.14489,1201.49,702.549)">
                <g transform="matrix(1,0,0,1,-12,-12)">
                    <path d="M12,17.355C14.87,18.143 18,14.221 18,12C18,10.374 17.354,8.9 16.304,7.819C16.431,7.402 16.5,6.959 16.5,6.5C16.5,4.015 14.485,2 12,2C9.515,2 7.5,4.015 7.5,6.5C7.5,6.959 7.569,7.402 7.696,7.819C6.647,8.9 6,10.374 6,12C6,14.221 8.972,18.127 12,17.355Z" style="fill:rgb(58,125,68);fill-rule:nonzero;"/>
                    <path d="M12,22L12,9" style="fill:none;fill-rule:nonzero;stroke:rgb(105,59,31);stroke-width:1.5px;"/>
                    <path d="M12,15L14.5,12.5" style="fill:none;fill-rule:nonzero;stroke:rgb(105,59,31);stroke-width:1.5px;"/>
                    <path d="M12,13L9.5,10.5" style="fill:none;fill-rule:nonzero;stroke:rgb(105,59,31);stroke-width:1.5px;"/>
                </g>
            </g>
            <g id="tree-04-stroke-rounded.svg2" serif:id="tree-04-stroke-rounded.svg" transform="matrix(-9.14489,0,0,9.14489,1700.69,702.549)">
                <g transform="matrix(1,0,0,1,-12,-12)">
                    <path d="M12,17.355C14.87,18.143 18,14.221 18,12C18,10.374 17.354,8.9 16.304,7.819C16.431,7.402 16.5,6.959 16.5,6.5C16.5,4.015 14.485,2 12,2C9.515,2 7.5,4.015 7.5,6.5C7.5,6.959 7.569,7.402 7.696,7.819C6.647,8.9 6,10.374 6,12C6,14.221 8.972,18.127 12,17.355Z" style="fill:rgb(58,125,68);fill-rule:nonzero;"/>
                    <path d="M12,22L12,9" style="fill:none;fill-rule:nonzero;stroke:rgb(105,59,31);stroke-width:1.5px;"/>
                    <path d="M12,15L14.5,12.5" style="fill:none;fill-rule:nonzero;stroke:rgb(105,59,31);stroke-width:1.5px;"/>
                    <path d="M12,13L9.5,10.5" style="fill:none;fill-rule:nonzero;stroke:rgb(105,59,31);stroke-width:1.5px;"/>
                </g>
            </g>
            <g id="tree-06-stroke-rounded.svg" transform="matrix(-9.14489,0,0,9.14489,1640.45,504.537)">
                <g transform="matrix(1,0,0,1,-12,-12)">
                    <path d="M12,17.831C6.621,17.811 6.002,16.623 6.002,14.967C4.306,14.724 3.002,13.265 3.002,11.502C3.002,10.005 3.941,8.728 5.263,8.228C5.095,7.853 5.002,7.439 5.002,7.002C5.002,5.345 6.345,4.002 8.002,4.002C8.392,4.002 8.765,4.076 9.107,4.212C9.454,2.938 10.618,2.002 12.002,2.002C13.385,2.002 14.55,2.938 14.897,4.212C15.239,4.076 15.612,4.002 16.002,4.002C17.659,4.002 19.002,5.345 19.002,7.002C19.002,7.439 18.909,7.853 18.741,8.228C20.062,8.728 21.002,10.005 21.002,11.502C21.002,13.265 19.698,14.724 18.002,14.967C18.002,16.623 17.338,17.85 12,17.831Z" style="fill:rgb(58,125,68);fill-rule:nonzero;"/>
                    <path d="M12,22L12,9" style="fill:none;fill-rule:nonzero;stroke:rgb(105,59,31);stroke-width:1.5px;"/>
                    <path d="M12,15L14.5,12.5" style="fill:none;fill-rule:nonzero;stroke:rgb(105,59,31);stroke-width:1.5px;"/>
                    <path d="M12,13L9.5,10.5" style="fill:none;fill-rule:nonzero;stroke:rgb(105,59,31);stroke-width:1.5px;"/>
                </g>
            </g>
            <g id="tree-01-stroke-rounded.svg" transform="matrix(-9.14489,0,0,9.14489,1530.71,649.739)">
                <g transform="matrix(1,0,0,1,-12,-12)">
                    <path d="M12,17.745C7.174,17.767 4,13.357 4,10C4,5.582 7.582,2 12,2C16.418,2 20,5.582 20,10C20,13.357 17.254,17.722 12,17.745Z" style="fill:rgb(58,125,68);fill-rule:nonzero;"/>
                    <path d="M12,22L12,9" style="fill:none;fill-rule:nonzero;stroke:rgb(105,59,31);stroke-width:1.5px;"/>
                    <path d="M12,15L14.5,12.5" style="fill:none;fill-rule:nonzero;stroke:rgb(105,59,31);stroke-width:1.5px;"/>
                    <path d="M12,13L9.5,10.5" style="fill:none;fill-rule:nonzero;stroke:rgb(105,59,31);stroke-width:1.5px;"/>
                </g>
            </g>
            <g id="tree-01-stroke-rounded.svg1" serif:id="tree-01-stroke-rounded.svg" transform="matrix(-9.14489,0,0,9.14489,1171.79,504.537)">
                <g transform="matrix(1,0,0,1,-12,-12)">
                    <path d="M12,17.745C7.174,17.767 4,13.357 4,10C4,5.582 7.582,2 12,2C16.418,2 20,5.582 20,10C20,13.357 17.254,17.722 12,17.745Z" style="fill:rgb(58,125,68);fill-rule:nonzero;"/>
                    <path d="M12,22L12,9" style="fill:none;fill-rule:nonzero;stroke:rgb(105,59,31);stroke-width:1.5px;"/>
                    <path d="M12,15L14.5,12.5" style="fill:none;fill-rule:nonzero;stroke:rgb(105,59,31);stroke-width:1.5px;"/>
                    <path d="M12,13L9.5,10.5" style="fill:none;fill-rule:nonzero;stroke:rgb(105,59,31);stroke-width:1.5px;"/>
                </g>
            </g>
            <g id="tree-02-stroke-rounded.svg1" serif:id="tree-02-stroke-rounded.svg" transform="matrix(-9.14489,0,0,9.14489,1750.19,592.81)">
                <g transform="matrix(1,0,0,1,-12,-12)">
                    <path d="M15,17L16,17C18.761,17 21,14.761 21,12C21,9.581 19.282,7.563 16.999,7.1C16.999,4.338 15,2 12,2C9,2 7.001,4.338 7.001,7.1C4.718,7.563 3,9.581 3,12C3,14.761 5.239,17 8,17L9,17" style="fill:rgb(58,125,68);fill-rule:nonzero;"/>
                    <path d="M12,22L12,9" style="fill:none;fill-rule:nonzero;stroke:rgb(105,59,31);stroke-width:1.5px;"/>
                    <path d="M12,15L14.5,12.5" style="fill:none;fill-rule:nonzero;stroke:rgb(105,59,31);stroke-width:1.5px;"/>
                    <path d="M12,13L9.5,10.5" style="fill:none;fill-rule:nonzero;stroke:rgb(105,59,31);stroke-width:1.5px;"/>
                </g>
            </g>
        </g>
    </g>
</svg>
